<?xml version="1.0" encoding="utf-8"?>
<!-- Generator: Adobe Illustrator 27.5.0, SVG Export Plug-In . SVG Version: 6.00 Build 0)  -->
<svg version="1.1" id="Layer_1" xmlns="http://www.w3.org/2000/svg" xmlns:xlink="http://www.w3.org/1999/xlink" x="0px" y="0px"
	 viewBox="0 0 7000 4000" style="enable-background:new 0 0 7000 4000;" xml:space="preserve">
<g>
	<defs>
		<rect id="SVGID_1_" x="0.784" y="1.662" width="6997.091" height="3998.338"/>
	</defs>
	<clipPath id="SVGID_00000163775249345728308610000000954057576057905046_">
		<use xlink:href="#SVGID_1_"  style="overflow:visible;"/>
	</clipPath>
	
		<linearGradient id="SVGID_00000122691196880586996970000002517572970729300149_" gradientUnits="userSpaceOnUse" x1="18387.1504" y1="13966.3281" x2="3447.6543" y2="1959.2996">
		<stop  offset="0" style="stop-color:#9C00FF"/>
		<stop  offset="1" style="stop-color:#01011F"/>
	</linearGradient>
	
		<rect x="0.784" y="1.662" style="clip-path:url(#SVGID_00000163775249345728308610000000954057576057905046_);fill:url(#SVGID_00000122691196880586996970000002517572970729300149_);" width="6997.091" height="3998.338"/>
</g>
<g>
	<defs>
		<path id="SVGID_00000018207964864958587700000015624126986489328290_" d="M1921.506,4000
			C1636.158,3073.935,916.733,2338.185,0.784,2030.3V4000H1921.506z"/>
	</defs>
	<clipPath id="SVGID_00000097487819655004326980000010119364066592761229_">
		<use xlink:href="#SVGID_00000018207964864958587700000015624126986489328290_"  style="overflow:visible;"/>
	</clipPath>
	
		<linearGradient id="SVGID_00000022546013560760620360000005527351028044722612_" gradientUnits="userSpaceOnUse" x1="4017.4724" y1="-725.7281" x2="480.3235" y2="3603.6648">
		<stop  offset="0" style="stop-color:#9C00FF"/>
		<stop  offset="1" style="stop-color:#01011F"/>
	</linearGradient>
	
		<rect x="0.784" y="2030.3" style="clip-path:url(#SVGID_00000097487819655004326980000010119364066592761229_);fill:url(#SVGID_00000022546013560760620360000005527351028044722612_);" width="1920.723" height="1969.7"/>
</g>
<g>
	<defs>
		<path id="SVGID_00000000923207343546782340000009307230474248866705_" d="M1379.959,2987.905
			c3.123-56.242,4.706-112.894,4.706-169.915c0-1064.191-551.3-1999.618-1383.881-2536.262V2030.3
			C547.29,2214.003,1023.835,2550.023,1379.959,2987.905"/>
	</defs>
	<clipPath id="SVGID_00000066516263570515635210000003160641105599532680_">
		<use xlink:href="#SVGID_00000000923207343546782340000009307230474248866705_"  style="overflow:visible;"/>
	</clipPath>
	
		<linearGradient id="SVGID_00000042698287847562512050000012284929513815982235_" gradientUnits="userSpaceOnUse" x1="4588.6553" y1="-865.9142" x2="79.8165" y2="2028.2311">
		<stop  offset="0" style="stop-color:#9C00FF"/>
		<stop  offset="1" style="stop-color:#01011F"/>
	</linearGradient>
	
		<rect x="0.784" y="281.728" style="clip-path:url(#SVGID_00000066516263570515635210000003160641105599532680_);fill:url(#SVGID_00000042698287847562512050000012284929513815982235_);" width="1383.881" height="2706.177"/>
</g>
<g>
	<defs>
		<path id="SVGID_00000151544310354593560140000015644321820246199953_" d="M1384.665,2817.99c0,57.022-1.583,113.673-4.706,169.915
			c79.688,97.982,153.346,201.064,220.409,308.682c411.449-515.456,657.405-1168.819,657.405-1879.631
			c0-511.509-127.366-993.267-352.112-1415.294H0.784v280.065C833.365,818.372,1384.665,1753.799,1384.665,2817.99"/>
	</defs>
	<clipPath id="SVGID_00000155845317322639170380000016689510148122998145_">
		<use xlink:href="#SVGID_00000151544310354593560140000015644321820246199953_"  style="overflow:visible;"/>
	</clipPath>
	
		<linearGradient id="SVGID_00000147909531191924947530000006695323356125995163_" gradientUnits="userSpaceOnUse" x1="6453.4443" y1="-2565.0564" x2="919.5142" y2="1815.1569">
		<stop  offset="0" style="stop-color:#9C00FF"/>
		<stop  offset="1" style="stop-color:#01011F"/>
	</linearGradient>
	
		<rect x="0.784" y="1.662" style="clip-path:url(#SVGID_00000155845317322639170380000016689510148122998145_);fill:url(#SVGID_00000147909531191924947530000006695323356125995163_);" width="2256.989" height="3294.925"/>
</g>
<g>
	<defs>
		<path id="SVGID_00000013878705913155133300000013852683737905127591_" d="M2255.822,1526.494
			c-23.867,668.317-265.232,1281.228-655.454,1770.093c135.541,217.502,244.143,453.53,321.138,703.413h1189.337
			c13.236-114.667,20.037-231.296,20.037-349.512C3130.88,2821.968,2796.72,2071.496,2255.822,1526.494"/>
	</defs>
	<clipPath id="SVGID_00000170260605118204094360000001839185981723255968_">
		<use xlink:href="#SVGID_00000013878705913155133300000013852683737905127591_"  style="overflow:visible;"/>
	</clipPath>
	
		<linearGradient id="SVGID_00000145744139855685869270000014499904109852140979_" gradientUnits="userSpaceOnUse" x1="6777.3657" y1="75.305" x2="1783.6387" y2="3117.8333">
		<stop  offset="0" style="stop-color:#9C00FF"/>
		<stop  offset="1" style="stop-color:#01011F"/>
	</linearGradient>
	
		<rect x="1600.368" y="1526.494" style="clip-path:url(#SVGID_00000170260605118204094360000001839185981723255968_);fill:url(#SVGID_00000145744139855685869270000014499904109852140979_);" width="1530.512" height="2473.506"/>
</g>
<g>
	<defs>
		<path id="SVGID_00000134247018960145747180000002602480846575297170_" d="M2255.822,1526.494
			c464.344,467.865,776.328,1087.155,855.339,1777.255c332.675-484.778,527.343-1071.68,527.343-1704.049
			c0-586.951-167.708-1134.731-457.82-1598.038H1905.66c224.746,422.027,352.112,903.786,352.112,1415.294
			C2257.772,1453.625,2257.118,1490.141,2255.822,1526.494"/>
	</defs>
	<clipPath id="SVGID_00000065794225878826991600000015580020333005480069_">
		<use xlink:href="#SVGID_00000134247018960145747180000002602480846575297170_"  style="overflow:visible;"/>
	</clipPath>
	
		<linearGradient id="SVGID_00000163753482341173000920000017494985315140836276_" gradientUnits="userSpaceOnUse" x1="7633.3213" y1="-1295.0546" x2="2580.5576" y2="1768.8422">
		<stop  offset="0" style="stop-color:#9C00FF"/>
		<stop  offset="1" style="stop-color:#01011F"/>
	</linearGradient>
	
		<rect x="1905.66" y="1.662" style="clip-path:url(#SVGID_00000065794225878826991600000015580020333005480069_);fill:url(#SVGID_00000163753482341173000920000017494985315140836276_);" width="1732.843" height="3302.087"/>
</g>
</svg>
